<svg id="Layer_1" enable-background="new 0 0 512 512" height="512" viewBox="0 0 512 512" width="512" xmlns="http://www.w3.org/2000/svg" style="fill: #909092"><g><path d="m497 112.467h-18.301c-3.102-19.796-12.332-38.026-26.75-52.405-17.701-17.748-42.273-27.928-67.416-27.928-24.39 0-48.256 9.883-65.478 27.115l-314.661 314.678c-4.29 4.29-5.573 10.741-3.252 16.347 2.322 5.605 7.792 9.26 13.858 9.26h193.867v50.333h-17.133c-8.284 0-15 6.716-15 15s6.716 15 15 15h160.666c8.284 0 15-6.716 15-15s-6.716-15-15-15h-49.267v-50.333h33.2c79.145 0 143.533-64.382 143.533-143.518v-.016-113.533h17.134c8.284 0 15-6.716 15-15s-6.715-15-15-15zm-321.333 257.066h-124.453l221.92-221.92v124.453c0 53.744-43.724 97.467-97.467 97.467zm97.467 80.333h-34.267v-50.333h34.267zm79.342-81.476c7.102-49.709 46.534-89.14 96.248-96.246-7.102 49.709-46.534 89.139-96.248 96.246zm97.391-126.611c-67.196 7.005-120.749 60.554-127.755 127.755h-64.384c27.749-23.4 45.406-58.412 45.406-97.467v-154.454c7.576-7.577 23.591-23.596 37.143-37.158 11.636-11.644 27.768-18.321 44.257-18.321 17.23 0 34.061 6.967 46.203 19.142 12.337 12.304 19.131 28.702 19.131 46.191v114.312z"/><circle cx="384.534" cy="127.467" r="15"/></g></svg>